<?xml version="1.0" encoding="utf-8"?>
<!-- Generator: Adobe Illustrator 23.0.1, SVG Export Plug-In . SVG Version: 6.00 Build 0)  -->
<svg version="1.1" id="_Layer_" xmlns="http://www.w3.org/2000/svg" xmlns:xlink="http://www.w3.org/1999/xlink" x="0px" y="0px"
	 viewBox="0 0 3411.3 3668.6" style="enable-background:new 0 0 3411.3 3668.6;" xml:space="preserve">
<style type="text/css">
	.st0{fill:#EEF3FA;}
	.st1{fill:#D2E6FF;}
	.st2{fill:#FFFFFF;}
	.st3{fill:#478FC9;}
	.st4{fill:#23356D;}
	.st5{fill:#405891;}
	.st6{fill:#F4B9AB;}
	.st7{fill:#396FBC;}
	.st8{opacity:0.24;}
	.st9{fill:url(#SVGID_1_);}
	.st10{fill:url(#SVGID_2_);}
	.st11{fill:url(#SVGID_3_);}
	.st12{fill:#EAB0A4;}
	.st13{fill:#FFC2B1;}
	.st14{fill:#1A2E37;}
	.st15{opacity:0.22;fill:#FF8076;enable-background:new    ;}
	.st16{fill:#121F3D;}
	.st17{opacity:7.000000e-02;fill:#DCEDFF;enable-background:new    ;}
	.st18{fill:url(#SVGID_4_);}
	.st19{opacity:0.24;fill:url(#SVGID_5_);enable-background:new    ;}
	.st20{fill:url(#SVGID_6_);}
	.st21{fill:url(#SVGID_7_);}
	.st22{fill:#4C7DBE;}
	.st23{fill:#0A0101;}
	.st24{fill:#314A7C;}
	.st25{fill:#B3C4DD;}
	.st26{fill:#D9E1EE;}
	.st27{fill:#659ED6;}
	.st28{opacity:0.34;fill:#DCEDFF;enable-background:new    ;}
	.st29{fill:#8EC2ED;}
	.st30{opacity:0.56;fill:url(#SVGID_8_);enable-background:new    ;}
	.st31{fill:#83C0F2;}
	.st32{opacity:0.6;fill:#3A6480;enable-background:new    ;}
	.st33{opacity:0.4;fill:#72A9CE;enable-background:new    ;}
	.st34{fill:#3B6480;}
	.st35{opacity:0.44;fill:#2F5466;enable-background:new    ;}
</style>
<title>Artboard 58</title>
<path class="st0" d="M-1344.3,801.2c-306.8-86.7-585.1-196.3-722.8-483.9c-85.5-178.4-118.4-403.1-6.7-566.4
	c53.2-77.8,133.7-133.2,218.2-175.2c33.5-16.6,68.8-32.2,93.9-59.9c40.9-45.2,45.3-112.9,35.4-173s-31.6-118.3-35.3-179.1
	c-7.5-126.7,67.5-248.4,170.3-322.9s229.9-107.9,355.7-124.7c94.4-12.6,204.2-11.1,267.2,60.4c59.7,67.8,61.2,183,140.3,226.6
	c60.3,33.2,134,6.7,201.1-9c122.1-28.6,256.4-16.4,363.4,48.9S-81.9-769.7-88.3-644.5c-4.7,91.5-49.9,183.8-23,271.5
	c21,68.5,81,116.1,128.8,169.5c152.8,170.4,187,436.9,82.3,640.4s-341.6,330.4-569,305"/>
<path class="st0" d="M1287.7,2972.5c-437-123.4-852.3-274.1-1048.5-683.6c-121.8-254.1-168.6-574-9.5-806.7
	c75.8-110.9,190.5-189.7,310.8-249.5c47.7-23.7,98-45.8,133.7-85.3c58.2-64.4,64.5-160.8,50.4-246.4s-45-168.5-50.2-255.1
	c-10.7-180.5,96.1-353.8,242.5-459.8S1244.3,32.5,1423.5,8.6c134.4-17.9,290.9-15.8,380.5,86c85,96.5,87.2,260.7,199.8,322.8
	c85.9,47.3,190.9,9.5,286.4-12.9c173.8-40.8,365.1-23.4,517.6,69.6s258.8,266.7,249.6,445c-6.7,130.4-71,261.8-32.7,386.6
	c29.9,97.6,115.4,165.4,183.5,241.4c217.6,242.7,266.3,622.3,117.1,912s-486.5,470.6-810.4,434.4"/>
<path class="st1" d="M2159.8,2972.5c437.1,25.3,815.4,93.9,1012,183.6c122,55.7,169.1,126.2,10.3,178.4
	c-75.7,24.9-190.3,42.9-310.5,56.6c-47.6,5.5-98,10.6-133.6,19.5c-58.1,14.5-64.3,35.9-50.1,54.7s45.2,37.1,50.5,56.2
	c10.9,39.9-95.8,78.7-242.1,102.9s-327.2,35.5-506.4,41.6c-134.4,4.6-290.8,4.8-380.6-17.3c-85.1-21-87.4-57.3-200.2-70.5
	c-85.9-10.1-190.9-1.2-286.3,4.2c-173.8,9.8-365.1,6.9-517.6-13s-259-57.8-250.1-97.3c6.5-28.9,70.7-58.3,32.3-85.7
	c-30-21.4-115.5-36-183.7-52.5c-217.8-52.7-267-136.4-118.1-201.2s486-106.4,810-99.9"/>
<rect x="691.5" y="1772.7" class="st2" width="2278.2" height="1296.5"/>
<path class="st3" d="M1593,1612.3h-538.8c-14.9,0-27.5-11.3-29-26.2l-38.4-375.3c-1.6-16,10-30.3,26-31.9c1-0.1,2-0.2,3-0.2h544.5
	c15.1,0,27.7,11.5,29,26.6l32.8,375.3c1.4,16-10.5,30.2-26.5,31.5C1594.7,1612.2,1593.8,1612.2,1593,1612.3z"/>
<polygon class="st4" points="1323.8,1611.9 1395.5,1611.9 1379.8,1419.3 1323.8,1419.3 "/>
<polygon class="st5" points="1351,1778.8 1195.6,1778.8 1225.2,1419.3 1379.8,1419.3 "/>
<path class="st5" d="M1102.3,1770.8h354.3c0.2,0,0.4,0.2,0.4,0.4v18.9c0,0.2-0.2,0.4-0.4,0.4h-354.3c-0.2,0-0.4-0.2-0.4-0.4v-18.9
	C1101.9,1771,1102.1,1770.8,1102.3,1770.8z"/>
<path class="st6" d="M2161.9,1106.3c5.4,28.8,1.7,58.5-10.4,85.1c-0.8,1.8-1.7,4-0.7,5.8c0.7,1.3,2.3,1.8,3.6,2.3
	c40.6,13.1,84,15,125.6,5.5c2.1-0.5,4.5-1.1,5.8-2.8c2.9-3.6-0.1-8.8-2.8-12.5c-15.3-21.6-20.2-49.3-17.8-75.7s11.5-51.7,22.2-75.9"
	/>
<path class="st7" d="M2154.9,1183.8c41.2,24.2,80.9,20.2,121.7-4.7c6.8,4.5,26.2,12.7,34.2,14.1c-5.9,32.9-11.7,63-20.3,95.3
	c-5.3,20.2-11.2,40.3-14.8,60.9c-2.5,14.2-3.8,28.5-5.2,42.8c-2.9,30.3-5.7,60.6-8.6,90.9c-3.2,34.3-6.5,68.5-8.6,102.8
	c-4.1,64.6-4.4,129.4-9.7,193.9c-0.2,2.7-0.6,5.7-2.5,7.6s-4.9,2.3-7.6,2.5l-99.4,8.7c-3.9,0.3-8.3,0.6-11.4-1.9
	c-2.6-2-3.6-5.4-4.5-8.6c-23.6-84.4-47.2-169.9-49-257.5c-0.6-30.2,1.3-60.3,3.3-90.4c5-76.1,10.9-155.1,48-221.7
	C2127.6,1206.3,2141.8,1196.2,2154.9,1183.8"/>
<path class="st2" d="M2276.6,1179.1c-29.5,112.3-28.6,223.3-35,339.2c-1.4,25-2.2,50.1-3.1,75.1l-6.5,195.3
	c-0.1,2.2-0.1,4.5,1.4,6.1c1.6,1.8,4.4,1.9,6.8,1.8l158.2-3.2c-14.7-79.4-23.3-160.4-17-240.9c7.7-99.2,37.7-195,60.6-291.9
	c0.7-2.9,1.3-5.9,0.3-8.7s-3.5-4.6-5.9-6.3C2392.9,1215.2,2326.7,1196.7,2276.6,1179.1"/>
<path class="st2" d="M2148.4,1194.5l-84,28.2c-6.9,2.3-13.9,4.7-19.5,9.2c-7,5.6-11.2,13.9-14.8,22.1
	c-30.9,69.4-37,146.9-42.7,222.6c-6.1,81.3-12.2,162.6-18.3,243.9c-1.9,26-4,52.4-13.9,76.5l91.9,6.4c3.2,0.2,6.9,0.3,9.2-2
	c1.9-2,2.1-5,2.2-7.8c2.4-76.3,4.8-152.6,7.1-228.9"/>
<path class="st2" d="M2155.1,1183c-33,202.1-44.8,410-27.9,614c0.2,2.6,0.3,5.6-1.5,7.5c-1.5,1.6-4,2-6.2,2.2
	c-20.4,2.1-40.8,3.3-61.3,3.7c-3.1,0.1-6.5,0-8.8-2c-3-2.5-3.1-7-3-11c2.1-70.9,0.1-141.9-5.9-212.6c-3.4-39.8-8.1-79.9-4.6-119.7
	c1.7-19.4,5.3-38.5,9-57.6c11.3-59.8,22.7-119.6,34-179.5c0.6-3.4,1.4-7.1,3.9-9.6c1.8-1.5,3.8-2.7,6.1-3.4
	C2109,1207.2,2134.9,1190.8,2155.1,1183"/>
<g class="st8">
	
		<linearGradient id="SVGID_1_" gradientUnits="userSpaceOnUse" x1="2063.2166" y1="2239.9849" x2="2155.1099" y2="2239.9849" gradientTransform="matrix(1 0 0 -1 0 3668)">
		<stop  offset="0" style="stop-color:#7EA4B7;stop-opacity:0.5"/>
		<stop  offset="1" style="stop-color:#7DA4B7"/>
	</linearGradient>
	<path class="st9" d="M2155.1,1183c-8.6,2.7-23.9,11.3-39.7,19.1c-9,4.5-11.2,16.4-14,26c-9.7,33.9-19.5,67.8-29.2,101.7
		c-1.4,4.9-2.8,10.1-1.2,14.9c1.2,3.7,4.1,6.7,6.8,9.5l24,24.4l-30.8,24.9c-2.9,2.4-6,4.9-7.2,8.5c-1.1,3.4-0.4,7.1,0.4,10.6
		c18.5,83.5,37.8,167,56.2,250.6C2117.8,1507.5,2126.4,1344.9,2155.1,1183"/>
</g>
<g class="st8">
	
		<linearGradient id="SVGID_2_" gradientUnits="userSpaceOnUse" x1="-2232.2039" y1="2670.1465" x2="-2139.094" y2="2670.1465" gradientTransform="matrix(-0.98 -0.19 0.19 -0.98 -384.89 3627.77)">
		<stop  offset="0" style="stop-color:#7EA4B7;stop-opacity:0.5"/>
		<stop  offset="1" style="stop-color:#7DA4B7"/>
	</linearGradient>
	<path class="st10" d="M2276.6,1179.1c8.6,3.6,26.6,8.7,39.9,13.5c9.4,3.4,8.3,32.1,9.2,42.1c3.2,35.1,1.5,69.1,4.6,104.2
		c0.5,5,0.8,10.4-1.6,14.8c-1.9,3.4-5.3,5.8-8.5,8l-28.2,19.4l25.7,30.3c2.4,2.9,5,6,5.5,9.7c0.5,3.5-1,7-2.4,10.3
		c-33.9,78.5-50.8,160.4-84.7,238.9C2240.4,1415.5,2254,1265.9,2276.6,1179.1"/>
</g>
<g class="st8">
	
		<linearGradient id="SVGID_3_" gradientUnits="userSpaceOnUse" x1="2317.9651" y1="2226.4397" x2="2384.3201" y2="2226.4397" gradientTransform="matrix(1 0 0 -1 0 3668)">
		<stop  offset="0" style="stop-color:#7EA4B7;stop-opacity:0.5"/>
		<stop  offset="1" style="stop-color:#7DA4B7"/>
	</linearGradient>
	<path class="st11" d="M2319.6,1428.4c19.5,5.9,39.7,9.1,60,9.6c1.4,0,3,0.1,4,1.2s0.7,2.9,0.4,4.4c-0.8,4-2,8.6-5.7,10.4
		c-2,1-4.4,0.8-6.6,0.7c-16.3-1.3-32.5-3.6-48.6-6.9c-1.1-0.1-2.2-0.6-3.1-1.3C2316.9,1443.2,2317.8,1433.2,2319.6,1428.4"/>
</g>
<path class="st12" d="M2163.5,1112.4c0,0,1.2,18.7,0,28.4s60.4,14.7,107.2-52.6s-23.7-21.7-23.7-21.7"/>
<path class="st13" d="M2134.6,861.5c-19,5.5-33.6,26.5-37.6,45.8c-6.1,28.9-11.6,57.5-11.5,87c0.1,25.2,11.6,53.1,23.9,75.1
	c7.8,14,19.1,25.6,30.3,37c6.5,6.7,13.3,13.5,21.9,17c11.9,4.9,25.5,2.8,37.8-1.1c34.9-11.3,72.1-35.5,90.4-67.3
	s18.1-70.9,17.1-107.6c-0.5-18.5-3.2-37.4-11.5-54s-22.9-30.7-40.8-35.2"/>
<path class="st13" d="M2295.5,975.3c0.4-17.4,17.4-20.1,27.7-22.5s24.5,10.7,28.8,20.4c3.3,7.3,1.7,15.9-1.3,23.4
	c-12.1,29.9-43.5,47.2-75.2,41.4"/>
<path class="st14" d="M2268.9,842.3c37.2,13.3,72.8,8.6,79.6-10.4c1.3-3.6,1.1-7.4,0.3-11.4c-17.2-13.4-36.8-23.4-58.6-28.5
	c-13.7-3.2-30.6-7.2-44.6-7.8c-10.6-0.3-21.2-0.1-31.8,0.8C2208.3,804,2232.5,829.3,2268.9,842.3z"/>
<path class="st14" d="M2368.6,872.5c10.6,8.2,22.7,11.1,31.4,8.6c-10.4-18.6-23.5-35.5-38.9-50.2c-2.2,0.9-4.1,2.4-5.7,4.2
	C2348.1,844.5,2354,861.2,2368.6,872.5z"/>
<path class="st12" d="M2097.5,900.7c0,0,7.8,36.1,68.6,42.8s99.3,22,109.4,35.8s-93.3-100.5-93.3-100.5l-55.4-16.8"/>
<circle class="st15" cx="2247" cy="1018.1" r="18.4"/>
<path class="st15" d="M2120.1,1020.7c0,10.1-8.2,18.4-18.4,18.4c-10.1,0-18.4-8.2-18.4-18.4c0-10.1,8.2-18.4,18.4-18.4c0,0,0,0,0,0
	C2111.9,1002.3,2120.1,1010.6,2120.1,1020.7C2120.1,1020.7,2120.1,1020.7,2120.1,1020.7z"/>
<path class="st2" d="M2125.3,1043.8h81.6C2206.9,1043.8,2165.5,1108.3,2125.3,1043.8z"/>
<path class="st14" d="M2210.5,945.5c-16.8,0-31,12.4-33.4,29c-11.7-5.2-20.6-2.3-24.4-0.3c-3.3-18-20.5-29.9-38.5-26.6
	s-29.9,20.5-26.6,38.5c3.3,18,20.5,29.9,38.5,26.6c16-2.9,27.5-17.1,27.2-33.3c0-0.6-0.1-1.1-0.2-1.7c2.3-1.4,11.2-5.8,23.7,0.2
	c0,0.5-0.2,1-0.2,1.5c0,18.7,15.2,33.9,33.9,33.9c18.7,0,33.9-15.2,33.9-33.9C2244.4,960.6,2229.2,945.5,2210.5,945.5L2210.5,945.5
	L2210.5,945.5z M2119.3,1010c-16.9,0-30.7-13.7-30.7-30.7c0-16.9,13.7-30.7,30.7-30.7c16.9,0,30.7,13.7,30.7,30.7c0,0,0,0,0,0
	C2150,996.3,2136.3,1010,2119.3,1010z M2210.5,1010c-16.9,0-30.7-13.7-30.7-30.7s13.7-30.7,30.7-30.7c16.9,0,30.7,13.7,30.7,30.7
	c0,0,0,0,0,0C2241.1,996.3,2227.4,1010,2210.5,1010z"/>
<path class="st14" d="M2112.3,971.8c-1.1,3.4-1.5,7-1.3,10.6c0.1,2.8,6.2,2.9,6.2,0c0.3-3.6-0.2-7.2-1.3-10.6
	C2115.5,970.5,2112.7,970.5,2112.3,971.8z"/>
<path class="st14" d="M2211.5,971.8c-1.1,3.4-1.5,7-1.3,10.6c0.1,2.8,6.2,2.9,6.2,0c0.3-3.6-0.2-7.2-1.3-10.6
	C2214.8,970.5,2212,970.5,2211.5,971.8z"/>
<path class="st14" d="M2121.5,930.4c-9.2-0.1-18.3,1.2-27.1,4c-1.1,0.4-1.7,1.6-1.3,2.7c0.3,1,1.4,1.6,2.4,1.4
	c8.6-2,17.3-3.5,26-4.6C2123.7,933.6,2123.8,930.4,2121.5,930.4L2121.5,930.4z"/>
<path class="st14" d="M2197.8,941.4c9.2-0.1,18.3,1.2,27.1,4c1.1,0.4,1.7,1.6,1.3,2.7c-0.3,1-1.4,1.6-2.4,1.4
	c-8.6-2-17.3-3.5-26-4.6C2195.6,944.6,2195.4,941.5,2197.8,941.4L2197.8,941.4z"/>
<path class="st12" d="M2294.8,1013.3c0,0,1.8-15.8,8.4-23.9s19.1-15.2,25.8-8.8s15.2,17.1,8.7,35.3s-19.2,25.6-28.9,24.9
	S2290.8,1029.3,2294.8,1013.3z"/>
<path class="st16" d="M2118,885.7c6.2,21.8,21.3,27,42.3,36.7c28.4,13.1,45.5,11.2,72.6,26.8s50.8,42.9,49.5,74.2
	c2.3-13,6-25.7,11.1-37.9c2.9-6.9,6.3-13.8,11.7-18.9s13.3-8.2,20.5-6.2c7.5,2.1,12.9,9.4,14.2,17s-0.6,15.6-3.8,22.8
	c-6.7,14.8-18.4,26.8-33.1,33.8c-3.9,1.8-8,3.3-11.2,6.1c-4.6,3.9-6.8,9.8-9.6,15.1c-8.5,15.9-22.5,28-39.5,34
	c26.9,14.5,59.6,10,89.7,5c11.1-1.8,22.1-7.3,32.2-12.2c21.1-10.3,34.1-28.4,44.9-49.3c7.3-14.1,14.4-28.6,17.2-44.2
	c3.3-18.6,0.1-37.8-5.3-56c-19.4-65-65.6-125.4-131.7-140.6c-13.7-3.2-30.6-7.2-44.6-7.8c-30.5-1.3-66,2.9-94.7,13.4
	c-19.4,7.1-36.9,23-52.6,36.4c-8.8,7.6-16.9,16.1-22.8,26.1c-12.1,20.7-13.7,45.8-12,69.7s6.3,47.6,5.4,71.5
	c-0.9,23.9-8.1,49-26.1,64.8c22,9.2,49,14.9,72.8,12.5c-15.1-31.1-21.7-55.2-23.9-88.5s14.9-83.9,26.7-104.3"/>
<path class="st17" d="M2268.9,842.3c37.2,13.3,72.8,8.6,79.6-10.4c1.3-3.6,1.1-7.4,0.3-11.4c-17.2-13.4-36.8-23.4-58.6-28.5
	c-13.7-3.2-30.6-7.2-44.6-7.8c-10.6-0.3-21.2-0.1-31.8,0.8C2208.3,804,2232.5,829.3,2268.9,842.3z"/>
<path class="st17" d="M2368.6,872.5c10.6,8.2,22.7,11.1,31.4,8.6c-10.4-18.6-23.5-35.5-38.9-50.2c-2.2,0.9-4.1,2.4-5.7,4.2
	C2348.1,844.5,2354,861.2,2368.6,872.5z"/>
<g class="st8">
	
		<linearGradient id="SVGID_4_" gradientUnits="userSpaceOnUse" x1="1893.0963" y1="2059.9138" x2="1919.0162" y2="2059.9138" gradientTransform="matrix(1 -4.000000e-02 -4.000000e-02 -1 222.78 3672.04)">
		<stop  offset="0" style="stop-color:#7EA4B7;stop-opacity:0.5"/>
		<stop  offset="1" style="stop-color:#7DA4B7"/>
	</linearGradient>
	<path class="st18" d="M2049.6,1697c-1.7-87,8.2-173.8,10.5-260.7c0.4-17.2,0.5-34.9-6.5-50.6c-2.4-5.3-5.1-12.6-10.7-10.7
		c-3.7,1.3-5.2,12-5.2,16c0.5,34.5-3.4,52.5-0.8,86s5.7,67.1,6.8,100.8C2044.6,1605.4,2048.7,1669.5,2049.6,1697"/>
</g>
<linearGradient id="SVGID_5_" gradientUnits="userSpaceOnUse" x1="2232.0601" y1="1969.325" x2="2377.4099" y2="1969.325" gradientTransform="matrix(1 0 0 -1 0 3668)">
	<stop  offset="0" style="stop-color:#7EA4B7;stop-opacity:0.5"/>
	<stop  offset="1" style="stop-color:#7DA4B7"/>
</linearGradient>
<polyline class="st19" points="2236,1691.7 2377.4,1634.3 2325.8,1723.6 2232.1,1763 "/>
<path class="st2" d="M2391.6,1466.5c-5.9-65.8,5.4-136.6,31.5-197.4c2.1-4.8,4.3-9.7,8.4-13s10.4-4.3,14.4-0.9
	c1.8,1.6,2.9,3.8,3.9,6c45.9,100.1,63.5,210.5,80.6,319.3c1.3,8.1,2.6,16.3,1.8,24.5c-1.8,20.7-16.1,38.1-30.9,52.7
	c-52.9,52-121.4,87.4-168.8,144.4c-2.5,3-5.1,6.3-8.8,7.7c-3.3,1.3-7,0.9-10.5,0.6l-132.4-13.6l168.3-138.7
	c25.2-20.8,50.6-41.8,71.2-67.2c3-3.8,6.1-7.8,7-12.5c1.2-5.8-0.8-11.7-2.7-17.3C2412.4,1526,2403.8,1501.5,2391.6,1466.5"/>
<g class="st8">
	
		<linearGradient id="SVGID_6_" gradientUnits="userSpaceOnUse" x1="2393.9199" y1="2257.2485" x2="2424.5037" y2="2257.2485" gradientTransform="matrix(1 0 0 -1 0 3668)">
		<stop  offset="0" style="stop-color:#7EA4B7;stop-opacity:0.5"/>
		<stop  offset="1" style="stop-color:#7DA4B7"/>
	</linearGradient>
	<path class="st20" d="M2393.9,1473.9c0.7-24.7,1.9-49.3,3.6-74c1.3-17.8,3.5-37.2,16.2-49.8c1-1.1,2.2-1.9,3.6-2.3
		c2.6-0.6,5.3,1.4,6.4,3.9s0.9,5.3,0.5,8c-4,33.4-24.2,63.2-28.4,96.7"/>
</g>
<g class="st8">
	
		<linearGradient id="SVGID_7_" gradientUnits="userSpaceOnUse" x1="2434.4399" y1="2104.6934" x2="2488.4548" y2="2104.6934" gradientTransform="matrix(1 0 0 -1 0 3668)">
		<stop  offset="0" style="stop-color:#7EA4B7;stop-opacity:0.5"/>
		<stop  offset="1" style="stop-color:#7DA4B7"/>
	</linearGradient>
	<path class="st21" d="M2434.4,1568l11.6-7.6c4.8-3.2,9.9-6.5,15.7-6.7c4.7-0.2,9.3,1.6,13.6,3.4c3.9,1.6,7.9,3.3,10.8,6.3
		c1.4,1.4,2.5,3.2,2.2,5.2c-0.6,3.6-5.3,4.5-9,4.5c-13.3-0.1-26.5-1-39.7-2.6"/>
</g>
<path class="st22" d="M2991.3,1331.6c-8.5-7.2-20.2-9-30.5-4.7c2.7-5.7,5.2-12.8,1.4-17.7c-4-5.1-12-4.1-17.9-1.4
	c-18.5,8.6-29.5,27.8-36.7,46.8c-0.6,1.8-0.9,3.6-1.1,5.4c0.4,0,31.6,19.9,48.3,27.8c5.7,2.7,12,5.5,18.2,4
	c6.8-1.7,11.6-8.8,11.5-15.8s-4.4-13.6-10.4-17.3c4.8-0.3,9.7-0.7,14.1-2.5s8.4-5.6,9.3-10.3
	C2998.6,1340.5,2995.4,1335.2,2991.3,1331.6z"/>
<path class="st23" d="M2909.8,1358.7c26.3-9.9,53.9-13.8,81.6-16.9c1.6-0.2,1.6-2.7,0-2.5c-27.9,3.5-55.8,7.1-82,18
	C2908.6,1357.7,2908.9,1359,2909.8,1358.7L2909.8,1358.7z"/>
<path class="st23" d="M2955.5,1308.4c-10.5,11.9-13.2,27.3-21,40.6c-0.3,0.6-0.1,1.2,0.5,1.5c0.5,0.3,1.1,0.1,1.4-0.4
	c7.7-13.3,10.7-28.5,20.2-40.9C2957.2,1308.7,2956,1307.8,2955.5,1308.4L2955.5,1308.4z"/>
<path class="st23" d="M2935.1,1351.2c14.2,10.3,23.7,25.6,38.1,35.7c1.2,0.8,2.3-1.1,1.1-1.9c-14.4-9.9-24-25-38.6-34.8
	C2935.1,1349.7,2934.5,1350.7,2935.1,1351.2L2935.1,1351.2z"/>
<path class="st23" d="M2976.8,1326.4c-2.8,4.3-6.4,8.3-9.1,12.8c-0.7,1.2-1.5,2.1-1.1,3.5c0.8,2.7,5.4,4.2,7.4,5.4
	c4.3,2.6,8.7,5,13.1,7.3c1.4,0.7,2.6-1.3,1.2-2.1c-2.8-1.5-5.7-3.1-8.5-4.6c-2.6-1.4-7.3-3.1-9.3-5.3c-2.7-2.8,0.4-5.2,2.3-7.9
	s3.7-5.5,5.3-8.4c0.2-0.4,0-0.9-0.4-1C2977.4,1326,2977,1326.1,2976.8,1326.4L2976.8,1326.4z"/>
<path class="st22" d="M2880.8,1269.2c-5-9.7-9.6-19.8-11.5-30.5s-0.5-22.4,5.8-31.4c3-4.3,8-8.1,13.1-6.9c3.7,0.9,6.4,4.3,7.5,8
	s0.9,7.6,0.6,11.4c2.2-7.1,5.7-14.1,11.1-19.2s13.2-8.1,20.5-6.8c2.6,0.4,5.1,1.6,7,3.4c2.7,2.8,3.4,7.2,2.6,11.1s-2.9,7.3-5.1,10.6
	c-2.4,3.6-5,7.1-7.7,10.5c6.4-4,14.9-2,18.9,4.4c3,4.9,2.7,11.1-0.8,15.7c-2.9,3.7-7.4,5.7-11.8,7.4c-15.5,6-31.5,10.4-47.8,13.4"/>
<path class="st23" d="M2927.7,1197c-17.4,22-28.7,48-45.6,70.4c-1,1.3,1.2,2.5,2.2,1.3c16.9-22.3,28.8-47.8,44.3-71
	C2928.9,1197.1,2928.1,1196.5,2927.7,1197L2927.7,1197z"/>
<path class="st23" d="M2882.1,1208.1c0,7.8,0.7,15.5,2.3,23.1c1,4.7,2.1,17.1,6.1,20.1c2.3,1.7,6.6-0.3,9-0.7
	c12.4-2.2,25.1-2.2,37.4-0.1c0.7,0.2,1.4-0.2,1.6-0.9c0.2-0.7-0.2-1.4-0.9-1.6c-0.1,0-0.2,0-0.3,0c-6.6-1-13.4-1.4-20.1-1.4
	c-6,0.1-12.5,2-18.4,1.8c-9.4-0.4-10.3-7.9-12-15.8c-1.7-8-2.9-16.2-3.5-24.4c0-0.3-0.3-0.6-0.6-0.6
	C2882.4,1207.5,2882.2,1207.7,2882.1,1208.1L2882.1,1208.1z"/>
<path class="st23" d="M2906.6,1204.3c0.2,7.1,1.4,14.1,1.8,21.2c0,0.6,0.5,1.1,1.1,1c0.1,0,0.2,0,0.2,0c7.5-1.7,14.2-5.7,21.6-7.6
	c0.6-0.2,1-0.8,0.8-1.5c-0.2-0.6-0.8-1-1.5-0.8c-7.4,1.9-14.3,5.6-21.6,7.9l1.4,1c-0.5-7-0.9-14.6-3-21.3c-0.1-0.3-0.3-0.4-0.6-0.3
	C2906.8,1203.8,2906.6,1204,2906.6,1204.3L2906.6,1204.3z"/>
<path class="st22" d="M2642.7,1350.1c-2.7-14-7.9-27.3-15.3-39.5c-4.4-7.3-10.1-14.5-18.1-17.3s-18.7,0.5-21.1,8.7
	c-1.8,6.2,1.4,12.6,4.6,18.2c-11.3-1.2-22.2,4.2-28,14c-4.1,7.2-4.1,17.8,2.7,22.5c6.5,4.5,15.4,1.6,22.7-1.4
	c0.1,5.2-4.4,9.2-6.5,13.9c-3.9,8.6,1.5,20.1,10.6,22.6c6.7,1.8,14-0.8,19.3-5.3s9.2-10.4,12.9-16.2l12.8-20.2"/>
<path class="st23" d="M2564.2,1340.1c27-5.2,54.2-6.5,77.7,10.1c1.3,0.9,2.5-1.2,1.2-2.1c-23.4-16.6-52.4-16.2-79.2-9.2
	C2563.1,1339.1,2563.4,1340.2,2564.2,1340.1L2564.2,1340.1z"/>
<path class="st23" d="M2597,1294.4c7.5,5.4,14.2,11.8,19.7,19.2c5.3,7.2,14.2,19.4,10.3,28.7c-0.6,1.3,1.6,1.9,2.1,0.6
	c3.6-8.7-3.3-19.6-8.1-26.6c-6.3-9.1-14.2-16.9-23.5-23C2596.9,1292.9,2596.4,1294,2597,1294.4L2597,1294.4z"/>
<path class="st23" d="M2593.1,1377c17.4-4.8,31.2-18.2,36.6-35.4c0.4-1.3-1.7-1.9-2.1-0.6c-5.2,16.6-18.2,29.7-34.8,34.9
	c-0.3,0.1-0.5,0.4-0.4,0.7C2592.5,1376.9,2592.8,1377.1,2593.1,1377z"/>
<path class="st22" d="M2760.3,1421c-12.3-9.1-21.2-22.1-25-36.9c-1.3-5.2-2-10.8,0-15.8s7.4-8.9,12.7-7.6c5.7,1.4,8.6,7.8,13.4,11.2
	c-2.2-9.4-4.2-19.7,0.1-28.3c2.9-5.8,8.4-9.8,14.7-10.8c6.4-0.9,12.8,1.9,16.6,7.1c6.1,8.9,2.1,20.9-2.1,30.8
	c4.4-1.7,8.8-3.4,13.3-4.9c1.9-0.7,4-1.3,5.9-0.5c2,0.9,2.9,3.4,3.2,5.6c0.9,7.1-1.9,14.3-6.4,20s-10.5,9.8-16.5,13.7
	c-9.7,6.1-19.8,11.5-30.4,16"/>
<path class="st23" d="M2778.6,1334.5c-2.4,28.1-12.9,56.8-19.4,84.3c-0.3,1.4,1.9,2.1,2.2,0.6c3.6-14.8,7.2-29.6,10.7-44.4
	c3.1-13.3,7.6-26.8,7.8-40.5C2779.9,1333.6,2778.7,1333.7,2778.6,1334.5z"/>
<path class="st23" d="M2745.7,1367c4.9,12.2,11.1,23.9,18.5,34.8c0.3,0.5,0.9,0.6,1.4,0.4c15.4-7.8,31.9-14.2,42-29
	c0.8-1.1-1-2.1-1.8-1c-8.3,11.9-20.8,18.2-33.5,24.4c-8.2,4.1-10.6-1.8-14.6-8.7c-4-7-7.6-14.1-10.7-21.5
	C2746.7,1365.8,2745.5,1366.3,2745.7,1367L2745.7,1367z"/>
<path class="st22" d="M2828.4,1330.7c-12.1-3.3-22.1-5.2-33.4-10.7s-21.8-13.3-28.5-24c-4-6.4-6.7-14.1-5.1-21.5s8.3-13.9,15.9-13.3
	c6,0.5,10.8,4.9,15.1,9.2l6.5,6.4c-4.3-9.3-4.6-20.1-0.7-29.6c1.8-4.4,4.7-8.7,8.8-11.2s9.6-3.1,13.7-0.6
	c7.9,4.7,6.8,16.3,10.4,24.7c6-4.5,14-9.2,20.6-5.5c4.3,2.4,6.2,7.5,6.6,12.3c1.2,13.3-6.1,25.7-13.2,37L2828.4,1330.7"/>
<path class="st23" d="M2811.6,1237.9c-1.1,30,0.3,62.1,12.2,90.1c0.5,1.3,2.8,0.3,2.3-1c-11.2-29.1-11.3-58.5-12.8-89.2
	c-0.1-0.5-0.5-0.8-0.9-0.7C2812,1237.1,2811.6,1237.4,2811.6,1237.9L2811.6,1237.9z"/>
<path class="st23" d="M2851,1263.1c-5.6,7.8-13.8,13.4-20,20.7c-5.3,6.3-9.9,13.2-13.5,20.7c-0.8,1.6,1.6,3,2.4,1.4
	c4.6-9,10.3-17.3,17.2-24.7c5.3-5.6,12-10.1,15.2-17.3c0.2-0.3,0.1-0.8-0.3-1C2851.6,1262.6,2851.2,1262.7,2851,1263.1L2851,1263.1z
	"/>
<path class="st23" d="M2766.6,1268c-6.6,0.5,3.5,8.4,4.4,9.1c14.3,11.3,31.7,17.7,46,28.9c1.3,1,3-0.7,1.8-1.8
	c-7.2-5.9-15.1-10.5-23.3-14.9c-4-2.2-8.1-4.3-12-6.7c-1.7-1-17.4-13.1-16.9-13.2C2767.5,1269.3,2767.5,1267.9,2766.6,1268
	L2766.6,1268z"/>
<path class="st23" d="M2676.6,1250.9c-4.1,30-4.4,61.5,5.8,90.4c9.8,27.8,29,50.6,45.7,74.4c18.6,26.4,31.2,54.8,37.1,86.6
	c6.1,33.1,5.5,66.5,5.4,100c0,4.3,6.5,4.3,6.7,0c2.3-59.8-1.4-123.4-34.8-175c-16-24.8-36.6-46.7-49.6-73.3
	c-15.8-32.1-15.8-67.8-14.1-102.8C2678.9,1250,2676.8,1249.6,2676.6,1250.9L2676.6,1250.9z"/>
<path class="st23" d="M2882,1267.5c-28,35.8-24,83.2-30.5,125.7c-3.9,26-12.6,48.9-29,69.6c-16.2,20.5-35.1,39-52.8,58.1
	c-3.3,3.6,2,9,5.4,5.4c32.3-34.9,70.6-68.2,80.2-116.9c9.3-47.4-0.1-98.5,28.5-140.5C2884.5,1267.9,2882.8,1266.5,2882,1267.5
	L2882,1267.5z"/>
<path class="st23" d="M2824.2,1328.9c15.2,20.4,21,44.8,26,69.3c0.6,2.8,4.9,1.6,4.3-1.2c-5.4-24.9-11.5-49.8-28.5-69.5
	C2825.1,1326.5,2823.4,1327.9,2824.2,1328.9L2824.2,1328.9z"/>
<path class="st23" d="M2917.1,1354.3c-25.5,5.2-45.6,21.3-65.2,37.7c-2.2,1.8,1,5,3.1,3.1c18.9-16.2,38.3-31.8,62.6-38.6
	c0.6-0.2,1-0.8,0.8-1.4C2918.4,1354.5,2917.7,1354.1,2917.1,1354.3L2917.1,1354.3L2917.1,1354.3z"/>
<path class="st22" d="M2676.7,1253.7c-2.5-2.8-4.9-5.7-7.3-8.6c-8-9.7-15.2-20.4-18.3-32.5s-1.6-26.1,6.6-35.6
	c3.2-3.7,7.8-6.8,12.6-6.1c7.2,1,10.7,9,12.9,15.9c2.4-7.9,6.3-15.2,11.5-21.6c3.6-4.3,8.6-8.5,14.1-7.6c4.7,0.8,8.1,5.1,9.4,9.7
	s0.6,9.4,0,14.2c3.6-3.4,7.4-6.8,12-8.6s10.2-1.9,14.2,1.1s5.5,8.1,5.2,13c-0.8,11.1-9.8,19.5-18.2,26.7
	c-16.7,14.3-33.7,28.8-53.4,38.5"/>
<path class="st23" d="M2711.9,1160.2c-13.4,30.3-25.3,61.3-35.6,92.8c-0.4,1.2,1.4,1.6,1.8,0.5c10.8-31.3,22.6-62.1,35-92.8
	C2713.3,1160,2712.2,1159.6,2711.9,1160.2L2711.9,1160.2z"/>
<path class="st23" d="M2661.9,1177c4.6,8.9,9.1,17.8,13.8,26.6c3.4,6.5,6.4,14.9,11.4,20.3c0.3,0.3,0.6,0.4,1,0.3
	c8.7-2.4,16.8-9.8,24.4-14.6c10.8-6.8,21.8-13.1,33.8-17.8c1.3-0.5,0.7-2.7-0.6-2.2c-16.1,6.6-30.5,15.8-45.1,25.1
	c-5.3,3.4-8.8,7.7-15.7,2.1c-2.8-2.3-4.7-8.8-6.5-12.2c-5.1-9.5-10.2-18.9-15.3-28.3C2662.6,1175.7,2661.6,1176.3,2661.9,1177
	L2661.9,1177z"/>
<path class="st23" d="M2696.1,1362.3c-17.9-6.5-36.8-10.6-55.1-15.9c-3.1-0.9-4.5,4-1.3,4.9c18.4,5.3,37.1,11.1,56.1,13.6
	C2697.3,1365.1,2697.4,1362.8,2696.1,1362.3L2696.1,1362.3z"/>
<path class="st23" d="M2753.1,1444.9c2.7-8.6,6-17.2,9.4-25.6c1-2.6-3.3-3.8-4.3-1.2c-3,8.5-5.6,17.2-7.6,26
	c-0.2,0.7,0.2,1.4,0.9,1.6C2752.2,1446,2752.9,1445.6,2753.1,1444.9L2753.1,1444.9z"/>
<path class="st24" d="M2827.2,1789.2h-119.5c-9.8,0-18.1-7.5-19.1-17.3l-19.8-197.9c-1.1-10.5,6.6-19.9,17.2-21
	c0.6-0.1,1.3-0.1,1.9-0.1H2848c10.6,0,19.1,8.6,19.1,19.2c0,0.6,0,1.3-0.1,1.9l-20.8,197.8C2845.2,1781.8,2837,1789.2,2827.2,1789.2
	z"/>
<path class="st17" d="M2707.8,1789.2h119.5c9.8,0,18-7.4,19.1-17.2l16.5-156.6c-59.9,79.5-135.9,104.4-178.5,112.1l4.5,44.4
	C2689.7,1781.7,2698,1789.2,2707.8,1789.2z"/>
<rect x="642.9" y="557.5" class="st25" width="912.1" height="37.8"/>
<rect x="1039.3" y="488.1" class="st26" width="31.9" height="69.4"/>
<rect x="1039.3" y="488.1" class="st27" width="31.9" height="16.9"/>
<rect x="1048.9" y="520" class="st2" width="12.3" height="25.9"/>
<rect x="1094.1" y="488.1" class="st26" width="31.9" height="69.4"/>
<rect x="1094.1" y="488.1" class="st27" width="31.9" height="16.9"/>
<rect x="1103.7" y="520" class="st2" width="12.3" height="25.9"/>
<rect x="1299.6" y="511.2" class="st26" width="21.3" height="46.3"/>
<rect x="1299.6" y="511.2" class="st27" width="21.3" height="11.3"/>
<rect x="1306" y="532.5" class="st2" width="8.2" height="17.3"/>
<rect x="1440.5" y="511.2" class="st26" width="21.3" height="46.3"/>
<rect x="1440.5" y="511.2" class="st27" width="21.3" height="11.3"/>
<rect x="1446.9" y="532.5" class="st2" width="8.2" height="17.3"/>
<rect x="863.7" y="505.2" class="st27" width="116.9" height="52.3"/>
<path class="st28" d="M980.6,557.9v-42.5c-31.4,22.9-91.3,25.4-116.9,25.3v17.2H980.6z"/>
<rect x="730.5" y="514.2" class="st27" width="95.7" height="42.8"/>
<path class="st28" d="M826.1,557.3v-34.7c-25.7,18.7-74.7,20.8-95.7,20.7v14L826.1,557.3z"/>
<rect x="1173.3" y="514.2" class="st27" width="95.7" height="42.8"/>
<path class="st28" d="M1269,557.3v-34.7c-25.7,18.7-74.7,20.8-95.7,20.7v14L1269,557.3z"/>
<rect x="1362.5" y="461.9" transform="matrix(1 -1.745302e-03 1.745302e-03 1 -0.8875 2.4161)" class="st27" width="42.8" height="95.7"/>
<path class="st28" d="M1362.2,557.5l34.7-0.1c-18.8-25.7-20.9-74.6-20.9-95.6h-14L1362.2,557.5z"/>
<rect x="642.4" y="863.2" class="st25" width="912.1" height="37.8"/>
<rect x="1205.2" y="793.8" class="st26" width="31.9" height="69.4"/>
<rect x="1205.2" y="793.8" class="st27" width="31.9" height="16.9"/>
<rect x="1214.8" y="825.6" class="st2" width="12.3" height="25.9"/>
<rect x="1256.8" y="793.8" class="st26" width="31.9" height="69.4"/>
<rect x="1256.8" y="793.8" class="st27" width="31.9" height="16.9"/>
<rect x="1266.4" y="825.6" class="st2" width="12.3" height="25.9"/>
<rect x="986.6" y="816.9" class="st26" width="21.3" height="46.3"/>
<rect x="986.6" y="816.9" class="st27" width="21.3" height="11.3"/>
<rect x="993" y="838.2" class="st2" width="8.2" height="17.3"/>
<rect x="743.4" y="810.5" class="st27" width="116.9" height="52.3"/>
<path class="st28" d="M860.3,863.2v-42.5c-31.4,22.9-91.3,25.4-116.9,25.3v17.2H860.3z"/>
<rect x="1391.1" y="810.5" class="st27" width="116.9" height="52.3"/>
<path class="st28" d="M1508.1,863.2v-42.5c-31.4,22.9-91.3,25.4-116.9,25.3v17.2H1508.1z"/>
<rect x="1051.1" y="820.4" class="st27" width="95.7" height="42.8"/>
<path class="st28" d="M1146.8,863.5v-34.8c-25.7,18.7-74.7,20.8-95.7,20.7v14L1146.8,863.5z"/>
<rect x="901.1" y="767.6" transform="matrix(1 -1.745302e-03 1.745302e-03 1 -1.4217 1.6114)" class="st27" width="42.8" height="95.7"/>
<path class="st28" d="M900.8,863.2l34.8-0.1c-18.8-25.7-20.9-74.6-20.9-95.6h-14L900.8,863.2z"/>
<rect x="1341.2" y="788.8" transform="matrix(1 -1.745302e-03 1.745302e-03 1 -1.4396 2.3794)" class="st27" width="42.8" height="74.4"/>
<path class="st28" d="M1340.9,863.2l34.8-0.1c-18.8-19.9-20.9-58-20.8-74.3h-14L1340.9,863.2z"/>
<path class="st29" d="M691.6,1828.3h2280.9c0.5,0,0.9,0.4,0.9,0.9v1246.2c0,0.5-0.4,0.9-0.9,0.9H691.6c-0.5,0-0.9-0.4-0.9-0.9
	V1829.3C690.7,1828.8,691.1,1828.3,691.6,1828.3z"/>
<linearGradient id="SVGID_8_" gradientUnits="userSpaceOnUse" x1="1678.29" y1="1183.405" x2="1953.92" y2="1183.405" gradientTransform="matrix(1 0 0 -1 0 3668)">
	<stop  offset="0" style="stop-color:#7EA4B7;stop-opacity:0.5"/>
	<stop  offset="1" style="stop-color:#7DA4B7"/>
</linearGradient>
<polygon class="st30" points="1854.5,2446.2 1854.5,2346.8 1777.7,2346.8 1777.7,2446.2 1678.3,2446.2 1678.3,2523 1777.7,2523 
	1777.7,2622.4 1854.5,2622.4 1854.5,2523 1953.9,2523 1953.9,2446.2 "/>
<rect x="619.3" y="1783.9" class="st31" width="2395.2" height="115.1"/>
<rect x="691.5" y="1899" class="st32" width="2281.8" height="33.5"/>
<polygon class="st2" points="1837.9,2432.1 1837.9,2332.6 1761.1,2332.6 1761.1,2432.1 1661.7,2432.1 1661.7,2508.9 1761.1,2508.9 
	1761.1,2608.3 1837.9,2608.3 1837.9,2508.9 1937.3,2508.9 1937.3,2432.1 "/>
<path class="st33" d="M703.5,3078.2h2257c7.1,0,12.9-5.3,12.9-11.8V2038.5c-615.8,609.6-1870.6,735.6-2282.7,760.9v267
	C690.7,3072.9,696.4,3078.2,703.5,3078.2z"/>
<path class="st6" d="M834.9,1171.8c-12.5,36.8-10.6,77,5.2,112.4c1.2,2.5,2.3,5.8,0.4,7.9c-1.3,1.5-3.5,1.6-5.5,1.6
	c-38.3,0.4-76.5-1.3-114.6-5.2c4.1-44,8.2-88.8,0.1-132.2c-3.1-16.3-7.8-32.7-6-49.2c15.9,0.2,27.6,14.3,39.8,24.4
	c11.6,9.6,25.3,16.4,40,19.9"/>
<path class="st16" d="M659.3,950.5c-8.5-19.1-20.5-36.8-36.8-49.8s-37-21-57.9-19.9c-6.6,0.3-13.3,1.7-18.8,5.2
	c-4.1,2.6-7.4,6.4-10.5,10.2c-8.8,10.9-16.2,23.2-19.5,36.8c-8.2,33.6,13.2,71.7,46.1,82.1s72.4-8.4,85-40.6"/>
<path class="st12" d="M720.6,1156.2c0,0,30.6,61.8,106.2,71.2c0,0,1.5-14.2,2.7-35.6"/>
<path class="st13" d="M788.6,924.1c49.3,1.1,94,43.9,97.5,93c1.9,27.1-5,60.2,16.7,76.7c5.9,4.5,14.3,8.7,13.8,16.1
	c-0.5,7-8.7,10.3-14.2,14.7c-21.4,16.8-6.7,57.8-28.7,73.8c-9.3,6.8-22,6.2-33.5,5.3c-22.3-1.8-45-3.6-65.9-11.7
	c-41.6-16-72-57.9-74.4-102.4c-0.7-13.4,1.5-28,11.2-37.2s28.6-8.8,34.2,3.3c1.1,2.4,1.7,5,3.3,7c4.9,5.9,15.6,1,17.6-6.4
	s-1.4-15.1-4.5-22.2c-9.5-21.5-16.8-45.3-12-68.2s25.5-44,48.8-42"/>
<path class="st14" d="M888.9,1146c-7.9,1.8-16.4-8.3-20.3-13.8c-1.3-1.8-4.4-0.1-3.1,1.8c5,7.1,14.5,17.6,24.3,15.4
	C892,1148.9,891.1,1145.5,888.9,1146z"/>
<path class="st14" d="M871,1057.3c-0.8,3.1-1.1,6.3-0.9,9.5c0.1,1.2,1.1,2.1,2.3,2c1.1-0.1,2-0.9,2-2c0.2-3.2-0.1-6.4-0.9-9.5
	c-0.2-0.7-1-1.1-1.7-0.9C871.5,1056.5,871.1,1056.8,871,1057.3z"/>
<path class="st15" d="M837.8,1113.7c0,9.9-8,18-17.9,18s-18-8-18-17.9c0-9.9,8-17.9,17.9-18C829.7,1095.8,837.7,1103.8,837.8,1113.7
	z"/>
<path class="st12" d="M752.4,1123c-7.6,5.7-20.7,1-29.4-10.5s-9.6-25.4-2-31.1s20.7-1,29.4,10.5S759.9,1117.3,752.4,1123z"/>
<path class="st12" d="M860.7,960.5c0,0,6,4.1,11,13.3s15.8,81.3-80,105.6"/>
<path class="st16" d="M841.2,923.5c28.2,24.1,30.3,56.7,20.5,80.4c-9.8,23.7-28.4,42.4-46.6,60.4c-11.3,11.3-25.8,23.5-41.3,19.8
	s-20-12.1-35.7-13.4c-12.2-1-18.6,1.6-20.1,13.7s4,21.9,13.7,29.4c5.1,3.9,6.4,7,10,12.4c10.8,16.5-19.9,36.6-18.5,56.3
	c-10.4-1.2-13.5-5-22.5-10.3c-30.9-18.2-59.5-41.7-78.2-72.3s-26.7-68.9-15.7-103.1c12-37.2,45-65.2,81.9-78.1s74.7-16.3,113.5-10.8
	C813,909.4,828.3,913.5,841.2,923.5"/>
<path class="st14" d="M879.7,1019.9c-8.8,2.1-17.1,5.5-24.8,10.3c-2.5,1.5-0.3,5.2,2.3,3.9c7.7-4,15.5-7.3,23.5-10.5
	c1-0.3,1.5-1.4,1.2-2.4C881.6,1020.3,880.6,1019.7,879.7,1019.9L879.7,1019.9z"/>
<path class="st17" d="M753.4,917.6c1.6,10.3-14.6,21.4-36.3,24.8s-40.6-2.1-42.2-12.3s14.6-21.4,36.3-24.8S751.8,907.3,753.4,917.6z
	"/>
<path class="st17" d="M809.5,905.2c1,6.4-9.2,13.4-22.7,15.6s-25.4-1.3-26.4-7.7s9.2-13.4,22.7-15.6S808.5,898.8,809.5,905.2z"/>
<path class="st13" d="M464.2,2900.7c-3.9,24.6-11.2,49.1-15,73.6c-3.8,24.1-9.7,51.4-30.8,63.6c-4.3,2.5,1.5,15.7-1.5,19.6
	c-5.2,6.8-12.9,5.7-6.8,11.6s14.6,8.6,22.5,11.6c35.2,13.5,65.6,36.9,97.8,56.5s68.6,36.1,106.2,33.1
	c-28.9-27.7-58.1-55.9-78.6-90.3c-25.3-42.4-35.8-95.3-19.8-142"/>
<path class="st14" d="M436.3,3019.1c7.8,22.4,22.8,38,41.5,52.6c20.7,16.1,43.4,31.7,69.5,34.9c6.8,0.9,14.5,0.6,19.7-3.9
	c0.9-0.8,1.9-1.8,3.1-1.6c0.9,0.2,1.7,0.7,2.2,1.5c20,20.6,48.3,30.4,74,43.3c8.2,4.1,16.4,8.7,22.4,15.7s9.5,16.6,6.9,25.4
	c-0.5,1.9-1.5,3.7-3,5c-2.7,2.1-6.5,1.6-9.9,1c-61.4-11-124.2-22.6-178.3-53.7c-10.2-5.9-20.3-12.5-31.7-15.3s-12.2-3.6-23.8-5.9
	c-5.8-1.3-11.5-2.9-17.1-4.8c-33.7-10.9-21.2-46.8-13.4-56.3C405.9,3047.9,428.8,3028,436.3,3019.1"/>
<path class="st13" d="M834.4,2936.5l4.8,74.4c1.6,24.4,1.9,52.3-15.7,68.8c-3.5,3.3,4.8,15,2.8,19.5c-3.5,7.7-11.1,8.4-4,12.8
	s15.7,5.2,23.9,6.4c36.4,5.4,70.3,21.5,105.2,33.6s73.1,20.1,108.2,8.9c-33.4-20.7-67.3-41.7-94.2-70.8
	c-33.1-35.8-54.5-85.1-49.4-134.2"/>
<path class="st13" d="M586.7,1531.2c-21.8,60.7-43.6,121.3-65.4,182c-2.7,7.6-5.5,15.8-3.4,23.7c2.5,9.4,11.2,15.6,19.3,21
	l45.5,30.3c55.9,37.2,112.7,74.9,176.7,95.2c14.5-11,15.3-33.7,6.7-49.7s-24.2-26.9-39.2-37.3L636,1734c-8-5.5-16.7-11.8-19.3-21.2
	c-2.4-8.4,0.5-17.4,3.5-25.7l58.3-164.8"/>
<path class="st34" d="M909.9,1751.3c149.8,405.5-31.5,826,8.6,1239.6c-29.7-1.5-51.7-1.7-81.3-3.3c-11.8-66.1-21.3-131.6-33.1-197.7
	c-12-67.1-24-134.8-19.8-202.7c3-48.4,19-96.1,17.8-144.6c-2.5-101.7-11.8-229.4-21.5-334.7c-19.1,95.1-41.1,256.9-48,336.8
	c-11.4,130.9-49.1,190.3-104.2,311.7c-29.3,64.4-58.5,128.8-87.8,193.2c-4.7,10.4-4.8,24.4-11.2,25.7c-23.1,4.4-63.9-9.9-83.8-17.6
	c9.6-49.3,15.6-97.2,26.6-144c6.5-27.7,13-55.4,23.7-82c9.4-23.3,21.9-45.5,33-68.2c70.6-143.2,67-306.6,58.4-463.4
	c-4.1-75.6-13.8-108.4-9.6-148.2c12.3-116.2,41.8-183.9,118.9-278.6"/>
<path class="st22" d="M634.7,1364.2c-30.7,48.8-58.6,99.4-83.7,151.4c-3,6.3-6.1,13.4-4.1,20.1c2.7,8.9,12.7,12.9,21.4,16.1
	c28.6,10.5,55.4,25.1,79.7,43.5"/>
<path class="st14" d="M836.6,3057.3c12.2,20.1,29.9,32.1,50.8,42.1c23.2,11.2,48.2,21.3,73.7,18.8c6.7-0.7,13.9-2.6,17.8-8.2
	c0.7-1,1.5-2.2,2.6-2.3c0.9,0,1.8,0.3,2.4,0.9c23.5,15.8,52.5,19,79.7,25.9c8.7,2.2,17.5,4.9,24.7,10.4s12.6,14.1,12,23.3
	c0,2-0.6,3.9-1.8,5.6c-2.1,2.6-5.9,3-9.2,3.1c-60.8,2.8-123,5.3-181.1-13.1c-11-3.5-22-7.7-33.5-7.9s-12.4-0.8-23.9-0.5
	c-5.8,0-11.6-0.3-17.3-0.9c-34.4-3.2-30.3-41-24.9-52C813.8,3092.1,831.3,3067.7,836.6,3057.3"/>
<path class="st35" d="M887.4,2095c0,0-85.9-2.4-134.5-38.9c0,0-63.2,16.2-97.2,8.1c0,0,19.7,19.3,56.3,23.9S820.4,2111,887.4,2095z"
	/>
<path class="st27" d="M722.5,1266.3c56.9,19.8,109.8-11.6,157,25.9c19.8,15.7,30.1,40.3,39.5,63.8c16.7,41.4,33.5,83.8,35.5,128.4
	c4.1,90.4-53.2,176.8-41.5,266.5c1,7.5,40.2,113.4,33.2,116.4c-1.8,0.8-41.4,5.5-43.4,5.6c-65.5,4-129.5,5.5-195.2,3.8
	c-30-0.8-71.5-12.6-74.1-14.1c-3.5-2.1,40-54.5,53.2-90.4c22.1-60.3-27.2-124.1-42.6-186.4c-11-44.5-22-89.3-23.9-135.1
	s6-93.2,30.4-131.9C663.2,1298.8,693.8,1273,722.5,1266.3"/>
<path class="st13" d="M844.7,1566.7c-0.8,46.9,2.3,93.8,9.4,140.1c0.6,3.8,1.3,7.8,3.4,10.8c2.4,3.3,6.3,4.7,9.9,5.8
	c84.2,26.8,172.8,37,260.9,30.2c20-1.6,41.7-3.5,58.2,10c2.2,1.8,4.3,3.9,6.8,5.1c4.1,1.9,8.7,1.1,13,0.2
	c20.5-4.6,40.4-13.1,61.2-15.5s43.7,2.6,57.8,20.8c4.7,6,12.3,13.8,17,7.7c1.8-2.3,1.9-5.6,1.8-8.7c-0.7-13.7-6.7-26.9-15.9-35.3
	c-7.7-7-17.2-10.5-26.6-13.4c-52.4-16.3-107.2-17.4-161.2-24c-68.5-8.5-136-26-203.2-43.6c-3-0.8-6.2-1.7-8.5-4
	c-3-3.1-3.9-7.9-4.8-12.5c-6.4-35.1,11-79.8,4.6-114.9"/>
<path class="st22" d="M809.8,1420.4c1,54.3,2.1,108.7,3.1,163c0.1,3,0.2,6.1,1.9,8.5c2,2.7,5.6,3.7,9,4.4
	c42.7,9.1,86.7,9.3,129.5,0.5c6.5-1.3,13.8-3.6,16.4-9.6c1.6-3.6,1.2-7.7,0.7-11.5l-14-114.5c-4.3-35.3-8.7-71-22.3-103.9
	s-37.7-62.9-70.9-75.7c0,0-26-6.9-38.9,36.9S809.8,1420.4,809.8,1420.4z"/>
</svg>
