<svg id="_Layer_" data-name="&lt;Layer&gt;" xmlns="http://www.w3.org/2000/svg" viewBox="0 0 2000 395.26"><defs><style>.cls-1{fill:#fff;}</style></defs><title>top img form</title><path class="cls-1" d="M1425.81,277.54a99.74,99.74,0,0,0-169.24,65.18h5a94.77,94.77,0,0,1,189.13,0h5A99.13,99.13,0,0,0,1425.81,277.54Z"/><path class="cls-1" d="M1322.56,271.82a4.81,4.81,0,0,0-6.6-1.13,100.8,100.8,0,0,0-18.06,16.16,104.62,104.62,0,0,0-21.06,37.25,4.85,4.85,0,0,0,3.5,6.21l.14,0a4.85,4.85,0,0,0,5.72-3.34c6.35-20.91,18.07-36.38,35.38-48.11a4.82,4.82,0,0,0,1.15-6.84Z"/><path class="cls-1" d="M1408.36,341.54h-16.6a2.49,2.49,0,0,0,0,5h16.6a2.49,2.49,0,1,0,0-5Z"/><path class="cls-1" d="M1455.49,341.54h-21.4v5h21.4a4.05,4.05,0,0,1,0,8.1H1256.64a4.05,4.05,0,0,1,0-8.1h125.43v-5H1256.64a9,9,0,0,0,0,18.06h198.85a9,9,0,0,0,0-18.06Z"/><path class="cls-1" d="M1426.89,341.54h-7.74a2.49,2.49,0,0,0,0,5h7.74a2.49,2.49,0,1,0,0-5Z"/><polygon class="cls-1" points="1358.62 234.14 1358.56 0 1353.58 0 1353.63 234.23 1358.62 234.14"/><path class="cls-1" d="M1370.58,292.58c1.34,3.56,1.84,5.48,1.38,9.14,1,2.22,2.34,6.37,2.34,8.93a18.23,18.23,0,1,1-36.46,0,24.28,24.28,0,0,1,2.33-8.93c-.53-1.46-1.32-1.93-1.2-3.58a15.16,15.16,0,0,1,.85-4,23.22,23.22,0,1,0,30.76-1.52Z"/><path class="cls-1" d="M1372.25,271.93a3.42,3.42,0,0,1-3.42,3.42h-25.52a3.43,3.43,0,0,1-3.43-3.42V251.7h-5v20.23a8.41,8.41,0,0,0,8.41,8.4h25.52a8.41,8.41,0,0,0,8.4-8.4V251.7h-5Z"/><path class="cls-1" d="M1335.8,299.34l4.37,2.38c5.34-9.78,6.9-23,7-23.6l-5-.56C1342.17,277.69,1340.66,290.42,1335.8,299.34Z"/><path class="cls-1" d="M1365,278.12c.06.56,1.62,13.82,7,23.6l4.37-2.38c-4.85-8.92-6.36-21.65-6.38-21.78Z"/><path class="cls-1" d="M1356.12,231.09a20.63,20.63,0,0,0-20.61,20.61h4.15a16.47,16.47,0,0,1,32.93,0h4.15A20.63,20.63,0,0,0,1356.12,231.09Z"/><path class="cls-1" d="M1069.75,277.54A99.75,99.75,0,0,0,900.5,342.72h5a94.77,94.77,0,0,1,189.13,0h5A99.17,99.17,0,0,0,1069.75,277.54Z"/><path class="cls-1" d="M966.49,271.82a4.81,4.81,0,0,0-6.6-1.13,100.41,100.41,0,0,0-18,16.16,104.49,104.49,0,0,0-21.07,37.25,4.85,4.85,0,0,0,3.5,6.21l.14,0a4.84,4.84,0,0,0,5.72-3.34c6.35-20.91,18.08-36.38,35.38-48.11a4.82,4.82,0,0,0,1.15-6.84Z"/><path class="cls-1" d="M1052.29,341.54h-16.6a2.49,2.49,0,0,0,0,5h16.6a2.49,2.49,0,1,0,0-5Z"/><path class="cls-1" d="M1099.43,341.54H1078v5h21.41a4.05,4.05,0,0,1,0,8.1H900.57a4.05,4.05,0,0,1,0-8.1H1026v-5H900.57a9,9,0,0,0,0,18.06h198.86a9,9,0,0,0,0-18.06Z"/><path class="cls-1" d="M1070.83,341.54h-7.75a2.49,2.49,0,0,0,0,5h7.75a2.49,2.49,0,1,0,0-5Z"/><polygon class="cls-1" points="1002.55 234.14 1002.5 0 997.52 0 997.57 234.23 1002.55 234.14"/><path class="cls-1" d="M1014.51,292.58c1.35,3.56,1.84,5.48,1.38,9.14,1,2.22,2.34,6.37,2.34,8.93a18.23,18.23,0,1,1-36.46,0,24.09,24.09,0,0,1,2.34-8.93c-.53-1.46-1.33-1.93-1.21-3.58a15.56,15.56,0,0,1,.85-4,23.22,23.22,0,1,0,30.76-1.52Z"/><path class="cls-1" d="M1016.18,271.93a3.42,3.42,0,0,1-3.42,3.42H987.24a3.42,3.42,0,0,1-3.42-3.42V251.7h-5v20.23a8.41,8.41,0,0,0,8.4,8.4h25.52a8.41,8.41,0,0,0,8.4-8.4V251.7h-5Z"/><path class="cls-1" d="M979.73,299.34l4.38,2.38c5.33-9.78,6.89-23,6.95-23.6l-4.95-.56C986.1,277.69,984.59,290.42,979.73,299.34Z"/><path class="cls-1" d="M1008.94,278.12c.06.56,1.62,13.82,6.95,23.6l4.38-2.38c-4.86-8.92-6.37-21.65-6.38-21.78Z"/><path class="cls-1" d="M1000.06,231.09a20.63,20.63,0,0,0-20.62,20.61h4.15a16.47,16.47,0,0,1,32.93,0h4.15A20.63,20.63,0,0,0,1000.06,231.09Z"/><path class="cls-1" d="M713.68,277.54a99.75,99.75,0,0,0-169.25,65.18h5a94.77,94.77,0,0,1,189.13,0h5A99.17,99.17,0,0,0,713.68,277.54Z"/><path class="cls-1" d="M610.42,271.82a4.81,4.81,0,0,0-6.6-1.13,100.75,100.75,0,0,0-18.05,16.16A104.64,104.64,0,0,0,564.7,324.1a4.85,4.85,0,0,0,3.5,6.21l.15,0a4.83,4.83,0,0,0,5.71-3.34c6.35-20.91,18.08-36.38,35.38-48.11a4.81,4.81,0,0,0,1.15-6.84Z"/><path class="cls-1" d="M696.22,341.54h-16.6a2.49,2.49,0,0,0,0,5h16.6a2.49,2.49,0,1,0,0-5Z"/><path class="cls-1" d="M743.36,341.54H722v5h21.41a4.05,4.05,0,0,1,0,8.1H544.51a4.05,4.05,0,1,1,0-8.1H669.94v-5H544.51a9,9,0,1,0,0,18.06H743.36a9,9,0,0,0,0-18.06Z"/><path class="cls-1" d="M714.76,341.54H707a2.49,2.49,0,0,0,0,5h7.75a2.49,2.49,0,1,0,0-5Z"/><polygon class="cls-1" points="646.48 234.14 646.43 0 641.45 0 641.5 234.23 646.48 234.14"/><path class="cls-1" d="M658.45,292.58c1.34,3.56,1.83,5.48,1.38,9.14,1,2.22,2.33,6.37,2.33,8.93a18.23,18.23,0,1,1-36.46,0,24.09,24.09,0,0,1,2.34-8.93c-.53-1.46-1.33-1.93-1.21-3.58a15.18,15.18,0,0,1,.86-4,23.21,23.21,0,1,0,30.76-1.52Z"/><path class="cls-1" d="M660.12,271.93a3.43,3.43,0,0,1-3.43,3.42H631.17a3.42,3.42,0,0,1-3.42-3.42V251.7h-5v20.23a8.41,8.41,0,0,0,8.4,8.4h25.52a8.41,8.41,0,0,0,8.41-8.4V251.7h-5Z"/><path class="cls-1" d="M623.67,299.34l4.37,2.38c5.33-9.78,6.89-23,7-23.6l-4.94-.56C630,277.69,628.52,290.42,623.67,299.34Z"/><path class="cls-1" d="M652.87,278.12c.06.56,1.62,13.82,7,23.6l4.37-2.38c-4.86-8.92-6.37-21.65-6.38-21.78Z"/><path class="cls-1" d="M644,231.09a20.63,20.63,0,0,0-20.61,20.61h4.15a16.46,16.46,0,0,1,32.92,0h4.15A20.63,20.63,0,0,0,644,231.09Z"/></svg>